<svg width="16" height="18" viewBox="0 0 16 18" fill="none" xmlns="http://www.w3.org/2000/svg">
<path d="M0 4.5C0 3.90326 0.210714 3.33097 0.585786 2.90901C0.960859 2.48705 1.46957 2.25 2 2.25H14C14.5304 2.25 15.0391 2.48705 15.4142 2.90901C15.7893 3.33097 16 3.90326 16 4.5V13.5C16 14.0967 15.7893 14.669 15.4142 15.091C15.0391 15.5129 14.5304 15.75 14 15.75H2C1.46957 15.75 0.960859 15.5129 0.585786 15.091C0.210714 14.669 0 14.0967 0 13.5V4.5ZM2 3.375C1.73478 3.375 1.48043 3.49353 1.29289 3.7045C1.10536 3.91548 1 4.20163 1 4.5V5.625H15V4.5C15 4.20163 14.8946 3.91548 14.7071 3.7045C14.5196 3.49353 14.2652 3.375 14 3.375H2ZM15 7.875H1V13.5C1 13.7984 1.10536 14.0845 1.29289 14.2955C1.48043 14.5065 1.73478 14.625 2 14.625H14C14.2652 14.625 14.5196 14.5065 14.7071 14.2955C14.8946 14.0845 15 13.7984 15 13.5V7.875Z" fill="#5514BF"/>
<path d="M2 11.25C2 10.9516 2.10536 10.6655 2.29289 10.4545C2.48043 10.2435 2.73478 10.125 3 10.125H4C4.26522 10.125 4.51957 10.2435 4.70711 10.4545C4.89464 10.6655 5 10.9516 5 11.25V12.375C5 12.6734 4.89464 12.9595 4.70711 13.1705C4.51957 13.3815 4.26522 13.5 4 13.5H3C2.73478 13.5 2.48043 13.3815 2.29289 13.1705C2.10536 12.9595 2 12.6734 2 12.375V11.25Z" fill="#5514BF"/>
</svg>
