<?xml version="1.0" standalone="no"?>
<!DOCTYPE svg PUBLIC "-//W3C//DTD SVG 20010904//EN"
 "http://www.w3.org/TR/2001/REC-SVG-20010904/DTD/svg10.dtd">
<svg version="1.0" xmlns="http://www.w3.org/2000/svg"
 width="640.000000pt" height="640.000000pt" viewBox="0 0 640.000000 640.000000"
 preserveAspectRatio="xMidYMid meet">
<metadata>
Created by potrace 1.14, written by Peter Selinger 2001-2017
</metadata>
<g transform="translate(0.000000,640.000000) scale(0.100000,-0.100000)"
fill="#000000" stroke="none">
<path d="M2045 5220 c-196 -30 -336 -127 -413 -287 l-37 -78 0 -145 0 -145 36
-75 c91 -190 253 -280 505 -280 175 0 333 51 363 118 16 34 14 410 -2 442 -21
42 -73 52 -245 48 l-154 -3 -24 -28 c-27 -31 -33 -99 -13 -156 l11 -31 84 0
84 0 0 -75 c0 -73 -1 -76 -27 -86 -48 -19 -154 -5 -212 26 -57 31 -106 95
-118 154 -15 70 -8 173 16 227 44 100 122 147 252 152 76 3 94 1 165 -27 43
-17 84 -31 91 -31 17 0 52 53 59 88 27 134 -181 228 -421 192z"/>
<path d="M1640 4273 c-5 -459 3 -2156 10 -2189 18 -79 52 -137 121 -207 75
-75 142 -112 239 -128 80 -15 184 1 259 38 68 33 167 131 199 195 52 105 52
107 52 1191 0 554 -3 1007 -7 1007 -3 0 -34 -11 -67 -24 -107 -43 -215 -59
-350 -53 -173 7 -304 52 -408 139 -27 21 -48 36 -48 31z"/>
<path d="M3004 3970 c-89 -18 -124 -32 -143 -57 -20 -25 -21 -37 -21 -430 0
-453 1 -462 64 -488 38 -16 95 -19 169 -9 l46 7 3 146 3 146 126 6 c108 5 134
10 188 34 148 67 221 234 176 400 -46 172 -196 256 -450 254 -66 -1 -139 -5
-161 -9z m258 -220 c53 -15 78 -55 78 -123 0 -50 -3 -58 -35 -86 -35 -31 -44
-33 -145 -34 l-35 0 -3 113 c-1 63 0 120 2 127 6 16 85 17 138 3z"/>
<path d="M3702 3450 c-52 -142 -191 -238 -377 -262 l-95 -12 0 -127 c0 -89 -4
-129 -12 -136 -39 -31 -232 -48 -324 -30 -40 8 -42 7 -47 -20 -3 -15 -4 -179
-3 -363 3 -303 6 -343 25 -414 43 -160 142 -284 261 -325 242 -84 512 55 574
297 14 53 16 149 14 744 -3 566 -5 677 -16 648z"/>
<path d="M4343 2840 c-136 -25 -233 -89 -273 -182 -19 -44 -22 -65 -18 -133 8
-148 72 -209 306 -289 164 -56 188 -77 156 -137 -32 -63 -186 -66 -309 -5 -82
40 -95 39 -134 -10 -25 -32 -28 -101 -7 -143 44 -84 234 -135 417 -112 224 29
329 125 329 301 0 165 -85 247 -345 335 -99 33 -125 49 -125 78 0 41 26 60 95
71 51 9 166 -9 221 -34 l42 -18 28 29 c21 22 28 41 32 82 4 49 1 57 -27 89
-21 25 -49 41 -95 56 -74 25 -218 35 -293 22z"/>
</g>
</svg>
