<?xml version="1.0" standalone="no"?>
<!DOCTYPE svg PUBLIC "-//W3C//DTD SVG 20010904//EN"
 "http://www.w3.org/TR/2001/REC-SVG-20010904/DTD/svg10.dtd">
<svg version="1.0" xmlns="http://www.w3.org/2000/svg"
 width="180.000000pt" height="180.000000pt" viewBox="0 0 180.000000 180.000000"
 preserveAspectRatio="xMidYMid meet">
<metadata>
Created by potrace 1.14, written by Peter Selinger 2001-2017
</metadata>
<g transform="translate(0.000000,180.000000) scale(0.100000,-0.100000)"
fill="#000000" stroke="none">
<path d="M0 900 l0 -900 900 0 900 0 0 900 0 900 -900 0 -900 0 0 -900z m668
519 c34 -12 46 -32 36 -61 -4 -14 -11 -17 -22 -12 -10 4 -34 9 -54 12 -30 3
-42 -1 -62 -22 -51 -50 -23 -136 44 -136 25 0 30 4 30 25 0 20 -5 25 -26 25
-22 0 -25 4 -22 28 3 26 5 27 63 27 l60 0 3 -72 c3 -66 1 -73 -20 -85 -13 -7
-50 -12 -83 -12 -100 -1 -155 48 -155 139 0 75 28 116 97 141 47 16 71 17 111
3z m-168 -283 c20 -25 112 -40 164 -27 24 6 47 11 50 11 3 0 6 -133 6 -295 0
-329 -3 -349 -62 -385 -60 -36 -131 -18 -168 43 -19 30 -20 52 -20 350 0 175
4 317 9 317 5 0 14 -7 21 -14z m475 -100 c43 -18 59 -48 52 -100 -7 -50 -33
-73 -92 -82 -45 -6 -45 -7 -45 -46 l0 -39 -37 3 -38 3 -3 128 c-3 125 -2 128
20 137 35 13 105 12 143 -4z m75 -528 c-34 -117 -197 -117 -230 0 -5 20 -10
81 -10 135 l0 97 39 0 c61 0 71 7 71 51 0 35 3 39 25 39 35 0 82 25 97 53 11
19 13 -6 16 -158 2 -108 -1 -195 -8 -217z m268 176 c22 -15 30 -48 13 -58 -4
-3 -22 -1 -39 3 -34 10 -72 4 -72 -11 0 -5 21 -18 48 -29 26 -11 55 -28 65
-36 25 -23 23 -87 -4 -112 -30 -28 -100 -37 -147 -19 -31 12 -37 18 -37 43 0
25 4 29 20 26 11 -2 38 -4 60 -5 54 -1 53 23 -2 44 -58 21 -83 47 -83 85 0 55
38 84 110 85 26 0 55 -7 68 -16z"/>
<path d="M890 956 c0 -32 3 -36 25 -36 47 0 44 61 -4 68 -18 3 -21 -1 -21 -32z"/>
</g>
</svg>
