<svg width="23" height="20" viewBox="0 0 23 20" fill="none" xmlns="http://www.w3.org/2000/svg">
<path d="M1.22754 5H9.97754" stroke="#B293F1" stroke-width="2" stroke-linecap="square" stroke-linejoin="round"/>
<path d="M17.4775 5L21.2275 5" stroke="#B293F1" stroke-width="2" stroke-linecap="square" stroke-linejoin="round"/>
<path d="M13.7275 8.75C15.7986 8.75 17.4775 7.07107 17.4775 5C17.4775 2.92893 15.7986 1.25 13.7275 1.25C11.6565 1.25 9.97754 2.92893 9.97754 5C9.97754 7.07107 11.6565 8.75 13.7275 8.75Z" stroke="#5514BF" stroke-width="2" stroke-linecap="round" stroke-linejoin="round"/>
<path d="M1 15.1145H3.5" stroke="#B293F1" stroke-width="2" stroke-linecap="square" stroke-linejoin="round"/>
<path d="M11.2275 15L21.2275 15" stroke="#B293F1" stroke-width="2" stroke-linecap="square" stroke-linejoin="round"/>
<path d="M7.25 18.8635C9.32107 18.8635 11 17.1846 11 15.1135C11 13.0425 9.32107 11.3635 7.25 11.3635C5.17893 11.3635 3.5 13.0425 3.5 15.1135C3.5 17.1846 5.17893 18.8635 7.25 18.8635Z" stroke="#5514BF" stroke-width="2" stroke-linecap="round" stroke-linejoin="round"/>
</svg>
