<svg width="18" height="18" viewBox="0 0 18 18" fill="none" xmlns="http://www.w3.org/2000/svg">
<path d="M7.39961 16.9999C7.84144 16.9999 8.19961 16.602 8.19961 16.1111C8.19961 15.6201 7.84144 15.2222 7.39961 15.2222C6.95778 15.2222 6.59961 15.6201 6.59961 16.1111C6.59961 16.602 6.95778 16.9999 7.39961 16.9999Z" stroke="#5514BF" stroke-width="2" stroke-linecap="round" stroke-linejoin="round"/>
<path d="M13.8 16.9999C14.2418 16.9999 14.6 16.602 14.6 16.1111C14.6 15.6201 14.2418 15.2222 13.8 15.2222C13.3582 15.2222 13 15.6201 13 16.1111C13 16.602 13.3582 16.9999 13.8 16.9999Z" stroke="#5514BF" stroke-width="2" stroke-linecap="round" stroke-linejoin="round"/>
<path d="M1 1H3.8C3.8 1 4.13035 2.62527 4.34202 3.66667C4.76498 5.74755 5.34588 8.60551 5.68669 10.2822C5.85144 11.0927 6.49918 11.6667 7.24704 11.6667H14.1166C14.8665 11.6667 15.5158 11.0879 15.6784 10.2746L17 3.66667" stroke="#5514BF" stroke-width="2" stroke-linecap="round" stroke-linejoin="round"/>
<path d="M17.0006 3.66675H4.60059" stroke="#5514BF" stroke-width="2" stroke-linecap="round" stroke-linejoin="round"/>
</svg>
